<svg height="64" preserveAspectRatio="none" viewBox="0 0 64 64" width="64" xmlns="http://www.w3.org/2000/svg" xmlns:xlink="http://www.w3.org/1999/xlink"><radialGradient id="a" cx="32.029785" cy="53.599609" gradientTransform="matrix(1 0 0 .3005815 0 38.068958)" gradientUnits="userSpaceOnUse" r="15.369045"><stop offset="0" stop-color="#595959"/><stop offset="1" stop-color="#414141" stop-opacity="0"/></radialGradient><linearGradient id="b" gradientUnits="userSpaceOnUse" x1="17.166016" x2="46.630093" y1="30.70459" y2="30.70459"><stop offset="0" stop-color="#9f9f9f"/><stop offset=".0066756" stop-color="#a4a4a4"/><stop offset=".0502393" stop-color="#c0c0c0"/><stop offset=".0993789" stop-color="#d7d7d7"/><stop offset=".1555923" stop-color="#e9e9e9"/><stop offset=".2231206" stop-color="#f6f6f6"/><stop offset=".3134247" stop-color="#fdfdfd"/><stop offset=".521212" stop-color="#fff"/><stop offset=".6605563" stop-color="#fcfcfc"/><stop offset=".7510174" stop-color="#f4f4f4"/><stop offset=".8275887" stop-color="#e5e5e5"/><stop offset=".8964058" stop-color="#d0d0d0"/><stop offset=".9594122" stop-color="#b5b5b5"/><stop offset="1" stop-color="#9f9f9f"/></linearGradient><linearGradient id="c"><stop offset="0" stop-opacity="0"/><stop offset="1"/></linearGradient><linearGradient id="d" gradientUnits="userSpaceOnUse" x1="31.79834" x2="31.79834" xlink:href="#c" y1="15.141602" y2="5.195819"/><linearGradient id="e" gradientUnits="userSpaceOnUse" x1="11.75" x2="51.416874" y1="33.21875" y2="33.21875"><stop offset="0" stop-color="#d6a981"/><stop offset=".0929519" stop-color="#bd8a66"/><stop offset=".2958378" stop-color="#8b4b2f"/><stop offset=".4442002" stop-color="#6b230d"/><stop offset=".521212" stop-color="#5f1400"/><stop offset=".5858703" stop-color="#69200b"/><stop offset=".7032461" stop-color="#824026"/><stop offset=".8587221" stop-color="#ac7453"/><stop offset="1" stop-color="#d6a981"/></linearGradient><linearGradient id="f" gradientUnits="userSpaceOnUse" x1="31.999512" x2="31.999512" xlink:href="#c" y1="5.581543" y2="14.641222"/><linearGradient id="g" gradientUnits="userSpaceOnUse" x1="31.999512" x2="31.999512" xlink:href="#c" y1="9.668457" y2="15.133903"/><linearGradient id="h"><stop offset="0" stop-color="#f0e0bd"/><stop offset=".3641049" stop-color="#b38b6e"/><stop offset=".6667417" stop-color="#864b33"/><stop offset=".8861442" stop-color="#6a230e"/><stop offset="1" stop-color="#5f1400"/></linearGradient><linearGradient id="i" gradientUnits="userSpaceOnUse" x1="27.261719" x2="27.414642" xlink:href="#h" y1="36.136719" y2="46.72179"/><linearGradient id="j" gradientUnits="userSpaceOnUse" x1="29.211914" x2="29.362646" xlink:href="#h" y1="36.517578" y2="46.950905"/><linearGradient id="k" gradientUnits="userSpaceOnUse" x1="31.171387" x2="31.321257" xlink:href="#h" y1="36.697266" y2="47.070969"/><linearGradient id="l" gradientUnits="userSpaceOnUse" x1="32.820313" x2="32.97163" xlink:href="#h" y1="36.645508" y2="47.119515"/><linearGradient id="m" gradientUnits="userSpaceOnUse" x1="34.55957" x2="34.710342" xlink:href="#h" y1="36.469727" y2="46.905979"/><linearGradient id="n" gradientUnits="userSpaceOnUse" x1="36.675781" x2="36.827938" xlink:href="#h" y1="36.00293" y2="46.534866"/><ellipse cx="32.029785" cy="54.178711" fill="url(#a)" rx="15.541504" ry="5"/><path d="m48.453125 10.4384766-.2441406-1.25s-.4863281-.3330078-1.9453125-.4169922c0 0-.0800781-2.1669922-.4863281-2.9169922-.4042969-.75-8.5898438-.5-13.7773438-.5s-13.3730469-.25-13.7783203.5-.4863281 2.9169922-.4863281 2.9169922c-1.4589844.0839844-1.9453125.4169922-1.9453125.4169922l-.2431641 1.25c-.7294922.0830078-1.296875.4160156-1.296875.4160156v1.1669922l2.3505859.0830078 3.2421875 41.3339844c3.890625 2.0830078 9.0507813 2.65625 12.1572266 2.65625s8.2675781-.5732422 12.15625-2.65625l3.2421875-41.3339844 2.3515625-.0830078v-1.1669922s-.5683594-.3330078-1.296875-.4160156z" fill="url(#b)"/><path d="m46.9951172 16.8779297h-30.3945313v-5.1435547l15.3994141.6572266 14.9951172-.6572266z" fill="url(#d)"/><path d="m32 24.8447266c-7.3339844 0-14.4716797-.9189453-14.4716797-.9189453l1.3466797 17.1787109c.7919922.3427734 8.46875 1.4072266 13.125 1.4072266 4.75 0 12.3320313-1.0644531 13.125-1.4072266l1.3466797-17.1787109s-7.1376953.9189453-14.4716797.9189453z" fill="url(#e)"/><path d="m32 43.0117188c-4.5429688 0-12.378418-1.0390625-13.3237305-1.4482422l-.2763672-.1201172-1.4179688-18.0927734.6103516.0791016c.0708008.008789 7.1918946.915039 14.4077149.915039 7.21875 0 14.3369141-.90625 14.4082031-.9150391l.6103516-.0791016-1.4189453 18.09375-.2763672.1191406c-.9716797.4199219-8.6738281 1.4482423-13.3232422 1.4482423zm-12.6533203-2.2871094c1.5405273.3642578 8.3354492 1.2871094 12.6533203 1.2871094 4.4287109 0 11.1181641-.9169922 12.6533203-1.2861328l1.2724609-16.2304688c-1.8886718.2177734-7.8730468.8496094-13.9257812.8496094s-12.0371094-.6318359-13.925293-.8496094z" fill="#40210f"/><path d="m32 12.6416016c-7.7529297 0-15.3417969-.5683594-15.4174805-.5742188-.1376953-.0107422-.2407227-.1308594-.2304688-.2685547.0107422-.1367188.128418-.2402344.2685547-.2304688.0751954.0058595 7.6459962.5732423 15.3793946.5732423 7.7353516 0 15.3037109-.5673828 15.3798828-.5732422.1289063-.0107422.2568359.09375.2675781.2304688.0107422.1376953-.0927734.2578125-.2304688.2685547-.0751952.0058593-7.6621093.5742187-15.4169921.5742187z" fill="#231815"/><path d="m32 56.5878906c-3.5385742 0-8.6513672-.7128906-12.3901367-2.7148438-.1479492-.0791016-.2456055-.2285156-.2587891-.3964844l-3.2075195-40.8945313-1.9111328-.0673828c-.2651367-.0097656-.4755859-.2275391-.4755859-.4931641v-1.1669922c0-.1748047.0927734-.3369141.2436523-.4248047.0224609-.0136719.4858398-.2822266 1.1274414-.4208984l.1782226-.9150389c.0244141-.1269531.0986328-.2392578.2050781-.3125.0898438-.0615234.5629883-.3466797 1.7553711-.4667969.0478516-.7128906.1811524-2.0644531.5214844-2.6943359.2602539-.4824219.9052734-.7988281 7.237793-.7988281 1.2089844 0 2.4746094.0107422 3.7011719.0214844 1.1513672.0097656 2.2685547.0185546 3.2729492.0185546 1.0048828 0 2.1220703-.0087891 3.2734375-.0185547 1.2265625-.0107421 2.4912109-.0214843 3.7011719-.0214843 6.3320313 0 6.9765625.3164063 7.2363281.7998047.3417969.6289062.4736328 1.9804687.5214844 2.6933593 1.1923828.1201172 1.6650391.4052734 1.7548828.4667969.1074219.0732422.1806641.1855469.2060547.3125l.1787109.9150391c.640625.1386719 1.1044922.4072266 1.1269531.4208984.1513672.0878906.2441406.25.2441406.4248047v1.1669922c0 .265625-.2099609.4833984-.4755859.4931641l-1.9121094.0673828-3.2080078 40.8945313c-.0126953.1679688-.1103516.3173828-.2587891.3964844-3.736328 2.001953-8.8496093 2.7148436-12.3886718 2.7148436zm-11.6870117-3.4599609c3.555664 1.8203125 8.3432617 2.4736328 11.6870117 2.4736328 3.3447266 0 8.1318359-.6523438 11.6855469-2.4736328l3.2216797-41.0615234c.0195313-.25.2236328-.4453125.4736328-.4541016l1.8759766-.0664063v-.3828125c-.2021484-.0869141-.5117188-.1953125-.859375-.2353516-.2138672-.0244141-.3867188-.1835938-.4287109-.3945313l-.1962891-1.0058594c-.2236328-.0820313-.7011719-.2158203-1.5371094-.2636719-.2539063-.0146484-.4550781-.2197266-.4648438-.4736328-.0283203-.7587891-.1591797-2.1035156-.3935547-2.6328125-.3515625-.1650391-1.7773438-.3496094-6.4023438-.3496094-1.2070313 0-2.4697266.0107422-3.6933594.0214844-1.1542968.0097658-2.274414.0185549-3.2812499.0185549s-2.1269531-.0087891-3.28125-.0185547c-1.2241211-.0107422-2.4863281-.0214844-3.6928711-.0214844-4.6254883 0-6.0512695.1845703-6.4033203.3496094-.234375.5292969-.3657227 1.8740234-.3945313 2.6328125-.0092773.2539063-.2104492.4589844-.4643555.4736328-.831543.0478516-1.309082.1806641-1.5375977.2646484l-.1953125 1.0039063c-.0410156.2109375-.2143555.3710938-.4277344.3955078-.3486328.0400391-.6577148.1484375-.8598633.2353516v.3828125l1.875.0664063c.2504883.0087891.4545898.2041016.4741211.4541016z" fill="#231815"/><path d="m32 6.6308594c-4.9326172 0-9.6601563-.1279297-14.0351563-.3623047l-.2285156 2.5029297h28.5273438l-.3359375-2.4970703c-4.3447266.2304687-9.0351563.3564453-13.9277344.3564453z" fill="url(#f)"/><path d="m15.546875 10.8320313h32.90625l-.2441406-1.1542969h-32.4189453z" fill="url(#g)"/><path d="m26.4916992 37.1025391c.0371094-.1572266.0947266-.2900391.1704102-.3974609.0766602-.1083984.1655273-.1845703.269043-.2304688.1049805-.0371094.230957-.0371094.3803711.0009766.1118164.0283203.2202148.0839844.324707.1650391.09375.0791016.1723633.1630859.2353516.2539063.0771484.1201172.1435547.2617188.199707.4248047.0419922.1357422.0629883.2666016.0629883.3925781-.0039063.0605469-.0126953.1162109-.0258789.1699219-.0874023-.0888672-.2050781-.1494141-.3525391-.1826172-.1459961-.03125-.2583008-.0175781-.3344727.0400391-.0068359.0058594-.0126953.0097656-.0151367.0126953-.0068359-.015625-.0126953-.0302734-.015625-.0400391-.0107422-.1054688-.0229492-.1982422-.0366211-.2792969-.0146484-.0673828-.027832-.1025391-.0424805-.1064453-.0415039-.0068359-.0742188.0410156-.0981445.1435547-.0214844.1210938-.0317383.2792969-.0317383.4736328 0 .1689453.012207.3164063.0361328.4414063.0283203.1035156.059082.1582031.09375.1669922.0209961.0029297.0385742-.0234375.0522461-.0761719.0249023-.0751953.0385742-.1923828.0424805-.3535156.0239258-.1035156.0634766-.1796875.1196289-.2294922.0600586-.0449219.1411133-.0556641.2456055-.0322266.1328125.0341797.2280273.0947266.2841797.1845703.0625.1044922.0942383.2382813.0942383.4003906-.0039063.1464844-.027832.3027344-.0737305.4648438-.0483398.1582031-.1098633.2792969-.1835938.3613281-.0737305.0898438-.1567383.1445313-.2514648.1650391-.1113281.0371094-.2216797.0410156-.3295898.0136719-.1523438-.0390625-.2753906-.1035156-.3696289-.1933594-.1103516-.1015625-.2070313-.2333984-.2905273-.3955078-.0649414-.1376953-.1206055-.3115234-.1655273-.5185547-.0371094-.1953125-.0561523-.3994141-.0561523-.6142578-.0000002-.2470705.0200193-.4560549.0620115-.6259767z" fill="url(#i)"/><path d="m30.074707 39.0488281c-.0283203.1416016-.0854492.2832031-.1708984.4248047-.0668945.1201172-.1435547.2060547-.2280273.2587891-.0708008.0410156-.140625.0673828-.2070313.0791016.0771484-.109375.1166992-.2451172.1166992-.4072266s-.0283203-.3007813-.0854492-.4179688c-.0527344-.1015625-.128418-.1601563-.2275391-.1748047.0068359-.0166016.0117188-.0292969.015625-.0390625.0107422-.0771484.0175781-.2197266.0214844-.4306641-.0039063-.1767578-.0126953-.3095703-.0263672-.3994141-.0175781-.1162109-.0390625-.1757813-.0634766-.1787109-.0283203-.0009766-.0532227.0517578-.074707.1582031-.0146484.0888672-.0214844.2255859-.0214844.4082031.0039063.2011719.0126953.3515625.0263672.4482422.0180664.1044922.043457.1601563.074707.1640625.0673828.0107422.1166992.0546875.1489258.1318359.0351563.0859375.0527344.1894531.0527344.3095703 0 .1269531-.0263672.2304688-.0800781.3105469-.0532227.0878906-.1176758.1259766-.1962891.1142578-.0986328-.015625-.2021484-.0654297-.3120117-.1513672-.1015625-.0761719-.1914063-.1826172-.269043-.3164063-.0878906-.1572266-.1494141-.3349609-.1845703-.53125-.034668-.1835938-.0522461-.4023438-.0522461-.6552734 0-.1943359.0205078-.3779297.0629883-.5527344.0419922-.1611328.1015625-.2998047.1796875-.4150391.090332-.1279297.184082-.2099609.2788086-.2470703.1137695-.0478516.2348633-.0615234.3662109-.0419922.1411133.0205078.2646484.0703125.3706055.1513672.1166992.0888672.2177734.2021484.3032227.3369141.0849609.1474609.1489258.3144531.190918.5019531.0395508.1865234.059082.3662109.059082.5390625 0 .2255862-.0234375.4326174-.0688477.6220705z" fill="url(#j)"/><path d="m30.652832 38.1162109c-.0600586-.0039063-.1132813-.03125-.159668-.0810547-.0571289-.0576172-.0966797-.1201172-.1171875-.1894531-.0258789-.0722656-.0375977-.15625-.0375977-.2509766 0-.0986328.0107422-.1835938.0317383-.2558594.0175781-.0732422.059082-.1337891.1230469-.1855469.0532227-.0380859.1064453-.0546875.159668-.0517578.0214844.0019531.0424805.0039063.0639648.0048828 0-.0458984 0-.0917969 0-.1376953 0-.2324219.015625-.4003906.0483398-.5039063.0424805-.1132813.0976563-.2041016.1645508-.2744141.0751953-.0742188.1611328-.1259766.2568359-.15625.0927734-.0283203.230957-.0390625.4165039-.0351563.0849609.0058594.1459961.0097656.1816406.0136719.0463867.0185547.0820313.0449219.1069336.0800781.0390625.0419922.065918.0957031.0795898.1591797.0219727.0703125.0327148.1689453.0327148.2958984-.003906.0849612-.0126951.1552737-.0268552.2119143-.0175781.0488281-.0390625.09375-.0639648.1357422-.0214844.0390625-.050293.0654297-.0859375.0791016-.0288086.0097656-.0693359.015625-.1225586.0146484-.0214844 0-.0424805-.0009766-.0639648-.0009766-.0644531-.0009766-.0966797.0507813-.0966797.15625.0585938.0009766.1176758.0029297.1767578.0029297.0571289.0009766.1083984.0234375.1547852.0654297.0571289.0537109.0976563.1220703.1225586.2070313.0214844.0703125.0327148.1494141.0327148.2373047-.0039063.0878906-.0131836.1689453-.0268555.2431641-.0327148.0947266-.0712891.1591797-.1176758.1943359-.0639648.0458984-.1191406.0683594-.1655273.0673828-.059082 0-.1181641-.0019531-.1767578-.0029297v1.5947266c0 .0429688-.0180664.0849609-.0537109.1259766-.03125.0488281-.0869141.078125-.1645508.0888672-.0615234.0166016-.1254883.0224609-.1923828.0195313-.0751953-.0068359-.1411133-.0195313-.1972656-.0371094-.0751953-.0244141-.1303711-.0615234-.1660156-.109375-.0356445-.0419922-.0532227-.0830078-.0532227-.1259766 0-.53125 0-1.0634766 0-1.5947266-.0214845-.0009766-.0424806-.0029297-.063965-.0048829z" fill="url(#k)"/><path d="m32.3032227 38.1621094c-.0600586.0009766-.1137695-.0214844-.1601563-.0673828-.0571289-.0527344-.0957031-.1113281-.1171875-.1787109-.0249023-.0703125-.0375977-.1533203-.0375977-.2480469 0-.0986328.0107422-.1845703.0322266-.2587891.0180664-.0742188.0585938-.1396484.1225586-.1962891.0532227-.0419922.1069336-.0644531.1601563-.0654297.0214844 0 .0429688-.0009766.0639648-.0009766 0-.0458984 0-.0917969 0-.1376953 0-.2324219.0161133-.4013672.0483398-.5078125.0424805-.1171875.0981445-.2128906.1660156-.2900391.0742188-.0800781.1601563-.1386719.2558594-.1777344.0927734-.0371094.2319336-.0585938.4165039-.0712891.0849609-.0019531.1455078-.0029297.1806641-.0019531.046875.0136719.0820313.0371094.1064453.0703125.0400391.0390625.0664063.0898438.0800781.1513672.0214844.0683594.0322266.1669922.0322266.2939453-.0039063.0849609-.0126953.15625-.0263672.2138672-.0175781.0498047-.0390625.0976563-.0634766.1416016-.0224609.0410156-.0507813.0703125-.0859375.0859375-.0273438.0136719-.0693359.0224609-.1220703.0263672-.0214844.0009766-.0429688.0029297-.0644531.0039063-.0644531.0048828-.0957031.0595703-.0957031.1650391.0585938-.0039063.1171875-.0078125.1757813-.0117188.0566406-.0048828.1083984.0126953.1542969.0517578.0576172.0478516.0976563.1123047.1230469.1953125.0205078.0683594.0322266.1464844.0322266.234375-.0048828.0878906-.0136719.1699219-.0273438.2460938-.0322266.0966797-.0703125.1660156-.1171875.2050781-.0634766.0507813-.1191406.078125-.1650391.0820313-.0585938.0039063-.1171875.0078125-.1757813.0117188v1.5947266c0 .0429688-.0175781.0859375-.0527344.1298828-.0332031.0517578-.0878906.0869141-.1660156.1044922-.0605469.0214844-.1245117.0332031-.1923828.0361328-.0751953-.0009766-.1401367-.0078125-.1977539-.0205078-.074707-.0175781-.1303711-.0498047-.1655273-.0947266-.0356445-.0380859-.0537109-.078125-.0537109-.1210938 0-.53125 0-1.0634766 0-1.5947266-.0209962 0-.0424806.0009766-.0639649.0009766z" fill="url(#l)"/><path d="m33.7128906 38.4667969c0-.2080078.0175781-.3945313.0527344-.5595703.0498047-.1982422.1132813-.3720703.1923828-.5205078.0771484-.1386719.1748047-.2529297.2919922-.3447266.1162109-.0878906.2402344-.140625.3720703-.1591797.1054688-.0146484.2128906.0009766.3232422.0478516.0878906.0419922.1708984.1113281.2480469.2070313.0917969.1181641.1552734.2470703.1904297.3896484.0419922.1435547.0634766.2949219.0634766.453125 0 .0527344-.0058594.1191406-.015625.1982422-.0107422.0332031-.0175781.0683594-.0214844.1044922-.0527344-.0332031-.1181641-.0546875-.1953125-.0664063-.0917969-.0126953-.1816406-.0107422-.2695313.0029297-.0957031.0146484-.1767578.0419922-.2441406.0830078-.0527344.0292969-.0927734.0830078-.1171875.1591797-.0351563.0966797-.0595703.1884766-.0742188.2753906-.0097656.046875-.0205078.0761719-.03125.0878906-.0351563-.0048828-.0634766-.0185547-.0859375-.0361328-.0351563-.0341797-.0595703-.0878906-.0732422-.1591797-.0175781-.0791016-.0263672-.1572266-.0263672-.2353516.0029297-.0839844.0117188-.1621094.0263672-.2294922.0205078-.0742188.046875-.1347656.0791016-.1855469.0361328-.0429688.0761719-.0673828.1220703-.0732422.0693359-.0087891.1376953-.0185547.2070313-.0292969-.0107422-.0507813-.0214844-.0859375-.03125-.1064453-.0175781-.0283203-.0429688-.0419922-.0742188-.0371094-.0341797.0048828-.0673828.0087891-.1015625.0136719-.0703125.0097656-.1347656.0439453-.1914063.1035156-.0703125.0761719-.1220703.1650391-.1533203.2675781-.0253906.0908203-.0371094.1894531-.0371094.2949219 0 .109375.0117188.2060547.0371094.2910156.03125.1123047.0800781.1884766.1435547.2265625.0527344.0322266.1025391.0507813.1484375.0546875v.0107422c.0917969-.015625.1503906-.0644531.1757813-.1455078.0273438-.0810547.0488281-.1621094.0625-.2412109.0146484-.0839844.0390625-.1396484.0742188-.1689453.0527344-.0371094.1074219-.0576172.1650391-.0625.0703125-.0117188.1386719-.0117188.2060547-.0029297.0771484.0126953.1376953.03125.1796875.0585938.0419922.0283203.0751953.0673828.1005859.1201172.0244141.0410156.0361328.0878906.0361328.1416016 0 .0947266-.0224609.2216797-.0683594.3818359-.0419922.1455079-.1123047.2861329-.2109375.4228516-.078125.1074219-.1708984.1943359-.28125.2568359-.0917969.0527344-.1865234.0869141-.2851563.1005859-.1416016.015625-.2714844-.0029297-.3876953-.0556641-.1279297-.0625-.2304688-.1552734-.3095703-.2773438-.0703125-.1083984-.1230469-.2626953-.1591797-.4599609-.0351562-.1835936-.0527344-.3828124-.0527344-.5976561z" fill="url(#m)"/><path d="m35.8447266 38.1503906c0-.2080078.0175781-.3964844.0527344-.5654297.0488281-.2041016.1123047-.3857422.1894531-.5429688.0761719-.1474609.1728516-.2734375.2880859-.3779297.1142578-.1015625.2363281-.1679688.3652344-.2021484.1044922-.0263672.2099609-.0224609.3173828.0107422.0869141.0322266.1679688.0917969.2441406.1787109.0898438.1083984.1523438.2294922.1865234.3681641.0410156.1386719.0615234.2871094.0615234.4453125 0 .0527344-.0048828.1201172-.015625.2001953-.0097656.0341797-.0175781.0712891-.0205078.1074219-.0507813-.0273438-.1152344-.0419922-.1914063-.0439453-.0898438-.0019531-.1777344.0097656-.2646484.0332031-.09375.0263672-.1738281.0634766-.2392578.1123047-.0517578.0351563-.0908203.0927734-.1142578.171875-.0351563.1005859-.0585938.1943359-.0732422.2832031-.0107422.0488281-.0205078.0791016-.03125.0917969-.0341797-.0009766-.0625-.0107422-.0839844-.0263672-.0341797-.0302734-.0585938-.0810547-.0732422-.1503906-.0175781-.0771484-.0263672-.1542969-.0263672-.2324219.0039063-.0849609.0126953-.1630859.0263672-.2324219.0214844-.0771484.046875-.140625.0791016-.1943359.0351563-.0478516.0742188-.0761719.1201172-.0878906.0673828-.0166016.1357422-.0341797.203125-.0517578-.0107422-.0507813-.0214844-.0849609-.03125-.1035156-.0175781-.0263672-.0419922-.0371094-.0732422-.0292969-.0332031.0087891-.0654297.0175781-.0986328.0253906-.0693359.0175781-.1328125.0595703-.1884766.1259766-.0693359.0839844-.1201172.1787109-.1523438.2851563-.0244141.09375-.0361328.1933594-.0361328.2988281 0 .109375.0117188.2050781.0361328.2871094.0322266.1083984.0800781.1787109.1416016.2099609.0527344.0263672.1015625.0380859.1464844.0380859v.0107422c.0908203-.0263672.1474609-.0820313.171875-.1660156.0283203-.0839844.0488281-.1679688.0625-.2490234.0146484-.0849609.0390625-.1435547.0732422-.1777344.0517578-.0419922.1054688-.0693359.1611328-.0810547.0693359-.0185547.1367188-.0273438.203125-.0253906.0751953.0029297.1337891.0146484.1757813.0380859.0410156.0224609.0732422.0585938.0976563.1074219.0244141.0390625.0361328.0839844.0361328.1376953 0 .0947266-.0214844.2246094-.0664063.3896484-.0419922.1503906-.1103516.2988281-.2070313.4472656-.0761719.1171875-.1679688.2138672-.2753906.2890625-.0898438.0634766-.1835938.1083984-.28125.1328125-.1386719.0322266-.265625.0283203-.3808594-.0107422-.1259766-.0488281-.2275391-.1289063-.3046875-.2421875-.0693359-.1005859-.1220703-.2490234-.1572266-.4414063-.0351561-.1796874-.0527342-.376953-.0527342-.5917968z" fill="url(#n)"/></svg>